<svg xmlns="http://www.w3.org/2000/svg" viewBox="0 0 617.46 108.39"><g id="Capa_2" data-name="Capa 2"><g id="Capa_1-2" data-name="Capa 1"><g id="Capa_2-2" data-name="Capa 2"><g id="Capa_1-2-2" data-name="Capa 1-2"><path d="M64.74,105.68c1.13-1.72,2.82-1.45,4.19-1.78,3.57-.85,5.37-3.09,5.81-6.6a50.28,50.28,0,0,0,.67-6c.06-13.48,0-27,0-41.33L33.25,63.5c-.61,5.07-.21,9.86,0,14.65.18,5.16.22,10.33.37,15.49.17,5.71,1.56,10.3,8.51,10.75a1.59,1.59,0,0,1,1.54,1.19c-.13,1.83-1.64,1.71-2.92,1.72H3.26c-1.37,0-2.6-.17-3.26-1.57,1.09-1.91,3-1.55,4.5-1.92a6.42,6.42,0,0,0,5.24-5.35A36.55,36.55,0,0,0,10.59,92c.51-25,.39-50,0-75a10.76,10.76,0,0,0-.07-1.5C10,9.14,9.59,2.64.86,3.41,0,1.36.61.58,1.84.1a3.06,3.06,0,0,1,1-.08h38c1.68,0,3,.44,2.78,2.43-.3.33-.49.74-.74.78C36,4.23,34.06,5.64,33.8,13.8c-.39,12.82-.59,25.65-.82,38.47,0,1.1-.42,2.33.94,3.71L75.58,42.59a291.93,291.93,0,0,0-1-32.53C74.24,6.69,72.17,4.71,69,3.81c-1.37-.39-3,.1-4.17-1.29.09-2,1.29-2.52,3-2.52h38c1.48,0,2.64.38,2.84,2.09-.42,1.5-1.73,1.27-2.83,1.5-5.17,1.11-6.82,2.83-7.1,8.08-.41,7.48-.75,15-.81,22.47-.13,16-.1,32,0,48,0,4.33.34,8.65.65,13,.46,6.36,1.53,7.57,7.77,9.19.8.21,1.67.18,2.24,1,.11,2-1.4,2-2.69,2H67.35A2.48,2.48,0,0,1,64.74,105.68Z"/><path d="M220.81,8.19C229.07,5.1,237.58,3.43,246,0c1.15,4,.38,8.14.52,12.15s0,8.32,0,12.48V49.8c2.61-.6,4.09-2.26,5.86-3.38C259.4,42,267,40,275.19,42.12,285.9,44.87,293,54.73,293.56,67.33c1,19.49-10,34.41-29,39.41-12.23,3.22-28.54,0-38.9-7.93a21.27,21.27,0,0,1-.16-2.26c.63-24.8.13-49.6.38-74.4.05-4-.72-7.53-3.31-10.64C222,10.66,221,9.89,220.81,8.19Zm25.8,45.94c0,12.05-.05,23.87,0,35.68a16.15,16.15,0,0,0,1.13,5.35c1.51,4.11,4,7.54,8.67,8s8-1.84,10.46-5.56a14.85,14.85,0,0,0,1.66-3.06c3.32-9,4.18-18.14,1.23-27.39-3.49-11-10.95-15.31-23.15-13Z"/><path d="M575.69,55v46.9c.93,2.42,3,2.31,4,3.35.09,1.75-.94,2-1.94,2H552.28a1.7,1.7,0,0,1-1.85-1.31c.24-2.13,3.21-1.06,3.34-2.47,1.25-2.42,1-4.45,1-6.43,0-10.65-.07-21.31.09-32A16.54,16.54,0,0,0,552,54.69a5.49,5.49,0,0,1-1.43-3.84l24.26-9.33c1.25,3,.07,5.95.86,8.67,1.38.82,2.08-.53,2.89-1.1a46.33,46.33,0,0,1,10.9-6c11.9-4.22,22.64,2.79,23,15.47.37,11.82.1,23.65.16,35.47,0,3-.38,6,.72,8.84.84,1.72,3.18,1.14,4.07,2.69-2.22,1.65-2.22,1.65-9.55,1.65H597.44c-7.61,0-7.61,0-9.78-1.41.46-2,3-1.23,3.71-2.92A15.52,15.52,0,0,0,592,97V72.51a48.61,48.61,0,0,0-.89-8.92C589.65,56.39,583.76,51.81,575.69,55Z"/><path d="M508.1,41.36c11.59-.08,20.63,3.44,27.9,11.13a31.46,31.46,0,0,1,.74,42.68c-11.65,12.92-29.27,17.65-46.13,8.08-12-6.82-18.22-17.48-16.89-31.49C475,58,483.09,49,495.52,43.76A28.92,28.92,0,0,1,508.1,41.36ZM496.3,73.5c.14,3,.12,6,.44,9,.65,6.15,1.67,12.24,5.19,17.53,3.89,5.86,10.12,6,14.53.55a15.31,15.31,0,0,0,3-5.73A73.24,73.24,0,0,0,518.67,54a17.14,17.14,0,0,0-3-5.7c-4-4.9-9.56-5-13.65-.15a19.27,19.27,0,0,0-3.39,6.62C496.58,60.84,496.38,67.15,496.3,73.5Z"/><path d="M143.34,41.37c11.13-.09,20,3.07,27.15,10.34,12.48,12.66,12.82,32.35.23,44.87-13.84,13.76-32.22,15.86-48.51,4.25-20.68-14.73-16.88-45.59,6.65-56.24C133.78,42.37,138.9,41.1,143.34,41.37ZM157.1,75.69c-.17-3.33-.17-6.67-.53-10-.65-5.81-1.66-11.57-5-16.54-4.09-6-10.44-6.15-14.82-.3a18.37,18.37,0,0,0-3.1,6.75,74.94,74.94,0,0,0,.59,38,20,20,0,0,0,3.24,6.71c4,5.45,10,5.6,14.21.31a22.51,22.51,0,0,0,4-9.07C156.88,86.36,157,81,157.1,75.69Z"/><path d="M211.74,102.67c1.15,2.08,3.36,1.39,4,3.47-3.06,2.23-6.59.88-9.84,1.11a72.55,72.55,0,0,1-10,0c-3.34-.21-6.88,1-10-1,.5-2.27,3.11-1.44,3.74-3,1.25-1.75,1-3.64,1-5.44q0-38.44.06-76.9a11.39,11.39,0,0,0-2.16-7c-1-1.46-2.4-2.75-3-4.94,8.05-3,16.34-5.15,24.64-7.7,1.31,1.8.8,3.66.8,5.37Q211,50.34,211,94A30.33,30.33,0,0,0,211.74,102.67Z"/><path d="M321,64.59a32.11,32.11,0,0,0,1.72,14.83c5.47,15.91,25.68,18.26,33.68,9,.32-.38.69-.63,1.69-.36a21.34,21.34,0,0,1-5.19,9.27c-6.86,7.56-15.52,12.34-25.59,10.76-15.76-2.48-26.43-11.33-27-30-.62-19,11.79-32.44,27.11-36a28.74,28.74,0,0,1,19.05,1.72c5.78,2.72,9.65,7,10.29,13.65.49,5.09-1.28,7.08-6.47,7.14-8.15.1-16.31,0-24.46,0Zm.4-3c6.21-.28,12.08.29,17.44-.43,2.38-3.32,1.12-6.16.82-8.84-.32-2.88-1.5-5.56-4.6-6.5a7.81,7.81,0,0,0-8.14,2.39c-3.5,3.57-5.11,7.95-5.54,13.39Z"/><path d="M446.82,28.83v13h20.24c1.1,2,.83,3.4,0,5.63-6,2.74-13,.13-19.68,1.45-1,.75-.59,2-.59,3.11V86c0,5.71,1.44,7.33,7.09,8.22a23.09,23.09,0,0,0,11.75-1.35c1-.37,1.86-1.57,3.54-.6a33.22,33.22,0,0,1-13.74,13.12c-7,3.64-13.84,4.06-20.93.33-5.18-2.73-8.08-6.64-8.05-12.67.09-14-.08-27.95.16-41.92.07-4.52-.69-8.26-5.52-10.94C429.55,35.75,438,32.94,446.82,28.83Z"/><path d="M390.12,103c2.85,1.73,5.72.62,7.81,2.33-.23.6-.35,1.41-.57,1.43-10.1,1.25-20.24.24-30.36.56-1,0-2-.1-2.37-1.32.38-2,3-1.29,3.48-2.54a8.41,8.41,0,0,0,.85-4.3c.05-12.15,0-24.31.13-36.46.06-4.35-2.88-7.3-4.71-11.58l25.27-10V55c3-4.1,5.12-7.47,8.32-9.89,3.64-2.75,7.56-4.22,12.1-2.52,3.67,1.38,5.39,4.22,5.77,8,.43,4.16-.87,7.58-4.39,9.94a8.24,8.24,0,0,1-9.82-.12c-2.19-1.47-4.12-3.42-7.08-3.62a8.75,8.75,0,0,0-4.93,2.43C389.75,73.47,389.41,88.19,390.12,103Z"/></g></g></g></g></svg>